G04*
G04 #@! TF.GenerationSoftware,Altium Limited,Altium Designer,24.10.1 (45)*
G04*
G04 Layer_Color=65535*
%FSLAX25Y25*%
%MOIN*%
G70*
G04*
G04 #@! TF.SameCoordinates,ABDC2601-369B-4BB1-BC34-F154D259AF89*
G04*
G04*
G04 #@! TF.FilePolarity,Positive*
G04*
G01*
G75*
%ADD10C,0.00984*%
%ADD11C,0.00400*%
%ADD12C,0.00600*%
%ADD13C,0.00787*%
%ADD14C,0.00500*%
D10*
X66189Y41992D02*
G03*
X66189Y41992I-492J0D01*
G01*
X75429Y88360D02*
G03*
X75429Y88360I-492J0D01*
G01*
X161752Y66142D02*
G03*
X161752Y66142I-492J0D01*
G01*
Y16142D02*
G03*
X161752Y16142I-492J0D01*
G01*
D11*
X173200Y85216D02*
G03*
X173200Y85216I-200J0D01*
G01*
Y14500D02*
G03*
X173200Y14500I-200J0D01*
G01*
D12*
X65900Y50600D02*
X74100D01*
X65900Y46400D02*
X74100D01*
X65900D02*
Y50600D01*
X78100Y46400D02*
Y50600D01*
X69900D02*
X78100D01*
X69900Y46400D02*
X78100D01*
X86900Y83200D02*
X95100D01*
X86900D02*
Y87400D01*
X95100D01*
Y83200D02*
Y87400D01*
X48900Y71900D02*
Y76100D01*
Y71900D02*
X57100D01*
Y76100D01*
X48900D02*
X57100D01*
X48900Y81100D02*
X57100D01*
Y76900D02*
Y81100D01*
X48900Y76900D02*
X57100D01*
X48900D02*
Y81100D01*
X57400Y54900D02*
X61600D01*
Y63100D01*
X57400D02*
X61600D01*
X57400Y54900D02*
Y63100D01*
X84900Y68100D02*
X93100D01*
Y63900D02*
Y68100D01*
X84900Y63900D02*
X93100D01*
X84900D02*
Y68100D01*
X177400Y15900D02*
X181600D01*
Y24100D01*
X177400D02*
X181600D01*
X177400Y15900D02*
Y24100D01*
X181100Y75900D02*
Y84100D01*
X176900Y75900D02*
X181100D01*
X176900D02*
Y84100D01*
X181100D01*
X93100Y52900D02*
Y57100D01*
X84900D02*
X93100D01*
X84900Y52900D02*
Y57100D01*
Y52900D02*
X93100D01*
X43100Y68900D02*
Y77100D01*
X38900Y68900D02*
X43100D01*
X38900D02*
Y77100D01*
X43100D01*
X38900Y78900D02*
X43100D01*
Y87100D01*
X38900D02*
X43100D01*
X38900Y78900D02*
Y87100D01*
X84900Y58400D02*
X93100D01*
X84900D02*
Y62600D01*
X93100D01*
Y58400D02*
Y62600D01*
X39000Y19600D02*
X43200D01*
X39000Y11400D02*
Y19600D01*
Y11400D02*
X43200D01*
Y19600D01*
X39100Y22100D02*
Y30300D01*
X43300D01*
Y22100D02*
Y30300D01*
X39100Y22100D02*
X43300D01*
X192900Y81900D02*
Y86100D01*
Y81900D02*
X201100D01*
Y86100D01*
X192900D02*
X201100D01*
X199400Y12400D02*
X207600D01*
X199400D02*
Y16600D01*
X207600D01*
Y12400D02*
Y16600D01*
X192900Y76900D02*
Y81100D01*
Y76900D02*
X201100D01*
Y81100D01*
X192900D02*
X201100D01*
X209400Y12400D02*
X217600D01*
X209400D02*
Y16600D01*
X217600D01*
Y12400D02*
Y16600D01*
X98900Y60900D02*
X103100D01*
Y69100D01*
X98900D02*
X103100D01*
X98900Y60900D02*
Y69100D01*
X167100Y24900D02*
Y33100D01*
X162900Y24900D02*
X167100D01*
X162900D02*
Y33100D01*
X167100D01*
X99000Y86384D02*
X103200D01*
X99000Y78184D02*
Y86384D01*
Y78184D02*
X103200D01*
Y86384D01*
X176116Y55000D02*
X184316D01*
X176116Y50800D02*
X184316D01*
X176116D02*
Y55000D01*
X176084Y43800D02*
Y48000D01*
Y43800D02*
X184284D01*
X176084Y48000D02*
X184284D01*
X180216Y50800D02*
X188416D01*
X180216Y55000D02*
X188416D01*
Y50800D02*
Y55000D01*
X188284Y43800D02*
Y48000D01*
X180084D02*
X188284D01*
X180084Y43800D02*
X188284D01*
X35800Y70621D02*
Y76820D01*
X31200Y70621D02*
X35800D01*
X31200D02*
Y76820D01*
X35800D01*
X31200Y79180D02*
Y85379D01*
X35800D01*
Y79180D02*
Y85379D01*
X31200Y79180D02*
X35800D01*
X30900Y60700D02*
X37100D01*
X30900D02*
Y65300D01*
X37100D01*
Y60700D02*
Y65300D01*
X35800Y14321D02*
Y20520D01*
X31200Y14321D02*
X35800D01*
X31200D02*
Y20520D01*
X35800D01*
X31200Y21100D02*
Y27300D01*
X35800D01*
Y21100D02*
Y27300D01*
X31200Y21100D02*
X35800D01*
X30900Y34700D02*
X37100D01*
X30900D02*
Y39300D01*
X37100D01*
Y34700D02*
Y39300D01*
X123600Y61599D02*
Y57600D01*
X125599D01*
X126266Y58266D01*
Y58933D01*
X125599Y59599D01*
X123600D01*
X125599D01*
X126266Y60266D01*
Y60932D01*
X125599Y61599D01*
X123600D01*
X129598D02*
X128265D01*
X127599Y60932D01*
Y58266D01*
X128265Y57600D01*
X129598D01*
X130264Y58266D01*
Y60932D01*
X129598Y61599D01*
X133597D02*
X132264D01*
X131597Y60932D01*
Y58266D01*
X132264Y57600D01*
X133597D01*
X134263Y58266D01*
Y60932D01*
X133597Y61599D01*
X135596D02*
X138262D01*
X136929D01*
Y57600D01*
X139595D02*
X142261Y60266D01*
X143594Y61599D02*
Y58266D01*
X144260Y57600D01*
X145593D01*
X146259Y58266D01*
Y61599D01*
X150258Y60932D02*
X149592Y61599D01*
X148259D01*
X147592Y60932D01*
Y60266D01*
X148259Y59599D01*
X149592D01*
X150258Y58933D01*
Y58266D01*
X149592Y57600D01*
X148259D01*
X147592Y58266D01*
X154257Y61599D02*
X151591D01*
Y57600D01*
X154257D01*
X151591Y59599D02*
X152924D01*
X155590Y57600D02*
Y61599D01*
X157589D01*
X158256Y60932D01*
Y59599D01*
X157589Y58933D01*
X155590D01*
X156923D02*
X158256Y57600D01*
X170401Y59600D02*
X173733D01*
X174400Y60266D01*
Y61599D01*
X173733Y62266D01*
X170401D01*
X171068Y66264D02*
X170401Y65598D01*
Y64265D01*
X171068Y63599D01*
X171734D01*
X172401Y64265D01*
Y65598D01*
X173067Y66264D01*
X173733D01*
X174400Y65598D01*
Y64265D01*
X173733Y63599D01*
X170401Y70263D02*
Y67597D01*
X174400D01*
Y70263D01*
X172401Y67597D02*
Y68930D01*
X174400Y71596D02*
X170401D01*
Y73595D01*
X171068Y74262D01*
X172401D01*
X173067Y73595D01*
Y71596D01*
Y72929D02*
X174400Y74262D01*
X175400Y26600D02*
X171401D01*
Y28599D01*
X172068Y29266D01*
X173401D01*
X174067Y28599D01*
Y26600D01*
X171401Y30599D02*
X175400D01*
X174067Y31932D01*
X175400Y33264D01*
X171401D01*
X175400Y34597D02*
X171401D01*
Y36597D01*
X172068Y37263D01*
X173401D01*
X174067Y36597D01*
Y34597D01*
Y35930D02*
X175400Y37263D01*
X131600Y39600D02*
Y43599D01*
X133599D01*
X134266Y42932D01*
Y41599D01*
X133599Y40933D01*
X131600D01*
X132933D02*
X134266Y39600D01*
X138265Y43599D02*
X135599D01*
Y39600D01*
X138265D01*
X135599Y41599D02*
X136932D01*
X142263Y42932D02*
X141597Y43599D01*
X140264D01*
X139597Y42932D01*
Y42266D01*
X140264Y41599D01*
X141597D01*
X142263Y40933D01*
Y40266D01*
X141597Y39600D01*
X140264D01*
X139597Y40266D01*
X146262Y43599D02*
X143596D01*
Y39600D01*
X146262D01*
X143596Y41599D02*
X144929D01*
X147595Y43599D02*
X150261D01*
X148928D01*
Y39600D01*
X148100Y53032D02*
X148767Y53699D01*
X150099D01*
X150766Y53032D01*
Y52366D01*
X150099Y51699D01*
X149433D01*
X150099D01*
X150766Y51033D01*
Y50366D01*
X150099Y49700D01*
X148767D01*
X148100Y50366D01*
X152099Y53699D02*
Y51033D01*
X153432Y49700D01*
X154764Y51033D01*
Y53699D01*
X156097Y53032D02*
X156764Y53699D01*
X158097D01*
X158763Y53032D01*
Y52366D01*
X158097Y51699D01*
X157430D01*
X158097D01*
X158763Y51033D01*
Y50366D01*
X158097Y49700D01*
X156764D01*
X156097Y50366D01*
X121200Y49700D02*
Y53699D01*
X123199D01*
X123866Y53032D01*
Y51699D01*
X123199Y51033D01*
X121200D01*
X122533D02*
X123866Y49700D01*
X127865Y53699D02*
X125199D01*
Y49700D01*
X127865D01*
X125199Y51699D02*
X126532D01*
X131863Y53032D02*
X131197Y53699D01*
X129864D01*
X129197Y53032D01*
Y50366D01*
X129864Y49700D01*
X131197D01*
X131863Y50366D01*
Y51699D01*
X130530D01*
X43600Y46299D02*
Y42966D01*
X44266Y42300D01*
X45599D01*
X46266Y42966D01*
Y46299D01*
X50265Y45632D02*
X49598Y46299D01*
X48265D01*
X47599Y45632D01*
Y44966D01*
X48265Y44299D01*
X49598D01*
X50265Y43633D01*
Y42966D01*
X49598Y42300D01*
X48265D01*
X47599Y42966D01*
X51597Y46299D02*
Y42300D01*
X53597D01*
X54263Y42966D01*
Y43633D01*
X53597Y44299D01*
X51597D01*
X53597D01*
X54263Y44966D01*
Y45632D01*
X53597Y46299D01*
X51597D01*
X58262Y42300D02*
X55596D01*
X58262Y44966D01*
Y45632D01*
X57595Y46299D01*
X56263D01*
X55596Y45632D01*
X43400Y49599D02*
X46066D01*
X44733Y50932D02*
Y48266D01*
X50064Y51599D02*
X47399D01*
Y49599D01*
X48732Y50266D01*
X49398D01*
X50064Y49599D01*
Y48266D01*
X49398Y47600D01*
X48065D01*
X47399Y48266D01*
X51397Y51599D02*
Y48933D01*
X52730Y47600D01*
X54063Y48933D01*
Y51599D01*
X43100Y56999D02*
Y53666D01*
X43766Y53000D01*
X45099D01*
X45766Y53666D01*
Y56999D01*
X49764Y56332D02*
X49098Y56999D01*
X47765D01*
X47099Y56332D01*
Y55666D01*
X47765Y54999D01*
X49098D01*
X49764Y54333D01*
Y53666D01*
X49098Y53000D01*
X47765D01*
X47099Y53666D01*
X51097Y56999D02*
Y53000D01*
X53097D01*
X53763Y53666D01*
Y54333D01*
X53097Y54999D01*
X51097D01*
X53097D01*
X53763Y55666D01*
Y56332D01*
X53097Y56999D01*
X51097D01*
X55096Y53000D02*
X56429D01*
X55763D01*
Y56999D01*
X55096Y56332D01*
X5166Y47199D02*
X2500D01*
Y43200D01*
X5166D01*
X2500Y45199D02*
X3833D01*
X9165Y46532D02*
X8498Y47199D01*
X7165D01*
X6499Y46532D01*
Y45866D01*
X7165Y45199D01*
X8498D01*
X9165Y44533D01*
Y43866D01*
X8498Y43200D01*
X7165D01*
X6499Y43866D01*
X10497Y43200D02*
Y47199D01*
X12497D01*
X13163Y46532D01*
Y45199D01*
X12497Y44533D01*
X10497D01*
X14496Y46532D02*
X15163Y47199D01*
X16496D01*
X17162Y46532D01*
Y45866D01*
X16496Y45199D01*
X15829D01*
X16496D01*
X17162Y44533D01*
Y43866D01*
X16496Y43200D01*
X15163D01*
X14496Y43866D01*
X21161Y43200D02*
X18495D01*
X21161Y45866D01*
Y46532D01*
X20494Y47199D01*
X19161D01*
X18495Y46532D01*
X3600Y56599D02*
Y53266D01*
X4266Y52600D01*
X5599D01*
X6266Y53266D01*
Y56599D01*
X7599Y52600D02*
Y55266D01*
X8932Y56599D01*
X10265Y55266D01*
Y52600D01*
Y54599D01*
X7599D01*
X11597Y52600D02*
Y56599D01*
X13597D01*
X14263Y55932D01*
Y54599D01*
X13597Y53933D01*
X11597D01*
X12930D02*
X14263Y52600D01*
X15596Y56599D02*
X18262D01*
X16929D01*
Y52600D01*
X232266Y15599D02*
X230933D01*
X231599D01*
Y12267D01*
X230933Y11600D01*
X230266D01*
X229600Y12267D01*
X236264Y11600D02*
X233599D01*
X236264Y14266D01*
Y14932D01*
X235598Y15599D01*
X234265D01*
X233599Y14932D01*
X232266Y88599D02*
X230933D01*
X231599D01*
Y85266D01*
X230933Y84600D01*
X230266D01*
X229600Y85266D01*
X233599Y84600D02*
X234932D01*
X234265D01*
Y88599D01*
X233599Y87932D01*
X30100Y53600D02*
X31433D01*
X30766D01*
Y57599D01*
X30100Y56932D01*
D13*
X-1909Y60000D02*
X945D01*
X12559D02*
X17480D01*
X-1909D02*
Y95984D01*
X945D01*
X12559D02*
X17480D01*
X12559Y40000D02*
X17480D01*
X-1909D02*
X945D01*
X-1909Y4016D02*
Y40000D01*
X12559Y4016D02*
X17480D01*
X-1909D02*
X945D01*
X262500Y83300D02*
X266500D01*
X260500D02*
X262500D01*
X266500D02*
X268500D01*
X260500D02*
Y87700D01*
X268500D01*
Y83300D02*
Y87700D01*
X57000Y83300D02*
Y87700D01*
X49000Y83300D02*
X57000D01*
X49000D02*
Y87700D01*
X57000D01*
X70323Y15811D02*
Y42189D01*
X85677Y15811D02*
Y42189D01*
X70323D02*
X85677D01*
X70323Y15811D02*
X85677D01*
X70000Y58800D02*
X78000D01*
Y63200D01*
X70000D02*
X78000D01*
X70000Y58800D02*
Y63200D01*
Y52800D02*
X78000D01*
Y57200D01*
X70000D02*
X78000D01*
X70000Y52800D02*
Y57200D01*
X40000Y60800D02*
X48000D01*
Y65200D01*
X40000D02*
X48000D01*
X40000Y60800D02*
Y65200D01*
X63126Y69126D02*
Y71095D01*
Y69126D02*
X65095D01*
X78874D02*
Y71095D01*
X76906Y69126D02*
X78874D01*
X63126Y82906D02*
Y84874D01*
X65095D01*
X78874Y82906D02*
Y84874D01*
X76906D02*
X78874D01*
X260000Y16200D02*
X268000D01*
X260000Y11800D02*
Y16200D01*
Y11800D02*
X268000D01*
Y16200D01*
X49000Y70700D02*
X57000D01*
X49000Y66300D02*
Y70700D01*
Y66300D02*
X57000D01*
Y70700D01*
X62800Y55000D02*
Y63000D01*
Y55000D02*
X67200D01*
Y63000D01*
X62800D02*
X67200D01*
X87000Y77800D02*
X95000D01*
Y82200D01*
X87000D02*
X95000D01*
X87000Y77800D02*
Y82200D01*
X170500Y84000D02*
X175500D01*
X170500Y76000D02*
Y84000D01*
Y76000D02*
X175500D01*
Y84000D01*
X170500Y15500D02*
Y24500D01*
Y15500D02*
X175500D01*
Y24500D01*
X170500D02*
X175500D01*
X40000Y34800D02*
X48000D01*
Y39200D01*
X40000D02*
X48000D01*
X40000Y34800D02*
Y39200D01*
X133600Y47350D02*
Y55850D01*
X146600D01*
Y47350D02*
Y55850D01*
X133600Y47350D02*
X146600D01*
X33250Y41000D02*
Y59000D01*
Y41000D02*
X41750D01*
Y59000D01*
X33250D02*
X41750D01*
X54700Y17500D02*
Y25500D01*
X50300D02*
X54700D01*
X50300Y17500D02*
Y25500D01*
Y17500D02*
X54700D01*
X60200D02*
Y25500D01*
X55800D02*
X60200D01*
X55800Y17500D02*
Y25500D01*
Y17500D02*
X60200D01*
X55800Y32500D02*
Y40500D01*
Y32500D02*
X60200D01*
Y40500D01*
X55800D02*
X60200D01*
X251500Y83300D02*
X259500D01*
Y87700D01*
X251500D02*
X259500D01*
X251500Y83300D02*
Y87700D01*
X242500D02*
X250500D01*
X242500Y83300D02*
Y87700D01*
Y83300D02*
X250500D01*
Y87700D01*
X162800Y65500D02*
Y73500D01*
Y65500D02*
X167200D01*
Y73500D01*
X162800D02*
X167200D01*
X151811Y70177D02*
Y79823D01*
X128878Y86811D02*
X151122D01*
X128189Y70177D02*
Y79823D01*
X128878Y63189D02*
X151122D01*
X114559Y69854D02*
Y72709D01*
X112000D02*
X114559D01*
Y61291D02*
Y64146D01*
X112000Y61291D02*
X114559D01*
Y83854D02*
Y86709D01*
X112000D02*
X114559D01*
Y75291D02*
Y78146D01*
X112000Y75291D02*
X114559D01*
X162800Y16000D02*
Y24000D01*
Y16000D02*
X167200D01*
Y24000D01*
X162800D02*
X167200D01*
X151811Y20177D02*
Y29823D01*
X128878Y36811D02*
X151122D01*
X128189Y20177D02*
Y29823D01*
X128878Y13189D02*
X151122D01*
D14*
X269917Y80315D02*
X289799D01*
X209090Y19685D02*
Y80315D01*
X269917Y19685D02*
X289799D01*
Y80315D01*
M02*
