G04*
G04 #@! TF.GenerationSoftware,Altium Limited,Altium Designer,24.10.1 (45)*
G04*
G04 Layer_Physical_Order=3*
G04 Layer_Color=1265191*
%FSLAX25Y25*%
%MOIN*%
G70*
G04*
G04 #@! TF.SameCoordinates,ABDC2601-369B-4BB1-BC34-F154D259AF89*
G04*
G04*
G04 #@! TF.FilePolarity,Negative*
G04*
G01*
G75*
%ADD49C,0.06800*%
%ADD69C,0.04000*%
%AMTHOVALD70*
21,1,0.04724,0.08362,0,0,360.0*
1,1,0.08362,-0.02362,0.00000*
1,1,0.08362,0.02362,0.00000*
21,0,0.04724,0.06362,0,0,360.0*
1,0,0.06362,-0.02362,0.00000*
1,0,0.06362,0.02362,0.00000*
4,0,4,-0.01655,-0.00707,-0.04612,-0.03664,-0.06026,-0.02249,-0.03069,0.00707,-0.01655,-0.00707,0.0*
4,0,4,0.03069,-0.00707,0.06026,0.02249,0.04612,0.03664,0.01655,0.00707,0.03069,-0.00707,0.0*
4,0,4,-0.03069,-0.00707,-0.06026,0.02249,-0.04612,0.03664,-0.01655,0.00707,-0.03069,-0.00707,0.0*
4,0,4,0.01655,-0.00707,0.04612,-0.03664,0.06026,-0.02249,0.03069,0.00707,0.01655,-0.00707,0.0*
%
%ADD70THOVALD70*%

%AMTHOVALD71*
21,1,0.03150,0.08362,0,0,360.0*
1,1,0.08362,-0.01575,0.00000*
1,1,0.08362,0.01575,0.00000*
21,0,0.03150,0.06362,0,0,360.0*
1,0,0.06362,-0.01575,0.00000*
1,0,0.06362,0.01575,0.00000*
4,0,4,-0.00868,-0.00707,-0.03824,-0.03664,-0.05238,-0.02249,-0.02282,0.00707,-0.00868,-0.00707,0.0*
4,0,4,0.02282,-0.00707,0.05238,0.02249,0.03824,0.03664,0.00868,0.00707,0.02282,-0.00707,0.0*
4,0,4,-0.02282,-0.00707,-0.05238,0.02249,-0.03824,0.03664,-0.00868,0.00707,-0.02282,-0.00707,0.0*
4,0,4,0.00868,-0.00707,0.03824,-0.03664,0.05238,-0.02249,0.02282,0.00707,0.00868,-0.00707,0.0*
%
%ADD71THOVALD71*%

%ADD72C,0.08000*%
G04:AMPARAMS|DCode=73|XSize=100mil|YSize=100mil|CornerRadius=0mil|HoleSize=0mil|Usage=FLASHONLY|Rotation=0.000|XOffset=0mil|YOffset=0mil|HoleType=Round|Shape=Relief|Width=20mil|Gap=10mil|Entries=4|*
%AMTHD73*
7,0,0,0.10000,0.08000,0.02000,45*
%
%ADD73THD73*%
%ADD74C,0.05200*%
D49*
X137600Y51600D02*
D03*
X142600D02*
D03*
X37500Y45000D02*
D03*
Y50000D02*
D03*
Y55000D02*
D03*
D69*
X0Y0D02*
Y100000D01*
X270000D01*
Y0D02*
Y100000D01*
X0Y0D02*
X270000D01*
D70*
X6752Y95000D02*
D03*
Y60984D02*
D03*
Y5000D02*
D03*
Y39016D02*
D03*
D71*
X22500Y95000D02*
D03*
Y60984D02*
D03*
Y5000D02*
D03*
Y39016D02*
D03*
D72*
X34500Y94500D02*
D03*
X54500D02*
D03*
X64500D02*
D03*
X74500D02*
D03*
X84500D02*
D03*
X94500D02*
D03*
X104500D02*
D03*
X114500D02*
D03*
X124500D02*
D03*
X134500D02*
D03*
X144500D02*
D03*
X154500D02*
D03*
X164500D02*
D03*
X174500D02*
D03*
X184500D02*
D03*
X194500D02*
D03*
X204500D02*
D03*
X214500D02*
D03*
X224500D02*
D03*
X234500D02*
D03*
X244500D02*
D03*
X254500D02*
D03*
X264500Y5500D02*
D03*
X244500D02*
D03*
X234500D02*
D03*
X224500D02*
D03*
X214500D02*
D03*
X204500D02*
D03*
X194500D02*
D03*
X184500D02*
D03*
X174500D02*
D03*
X164500D02*
D03*
X154500D02*
D03*
X144500D02*
D03*
X134500D02*
D03*
X124500D02*
D03*
X114500D02*
D03*
X104500D02*
D03*
X94500D02*
D03*
X84500D02*
D03*
X74500D02*
D03*
X64500D02*
D03*
X54500D02*
D03*
X44500D02*
D03*
D73*
Y94500D02*
D03*
X264500D02*
D03*
X254500Y5500D02*
D03*
X34500D02*
D03*
D74*
X184000Y76500D02*
D03*
X249500Y72000D02*
D03*
X184000Y20000D02*
D03*
X160900Y50600D02*
D03*
X83500Y86000D02*
D03*
X64000Y69500D02*
D03*
X62000Y50000D02*
D03*
X46800Y74700D02*
D03*
X36100Y77900D02*
D03*
X31300Y77865D02*
D03*
X46800Y78300D02*
D03*
X46400Y18700D02*
D03*
Y22300D02*
D03*
X173868Y43100D02*
D03*
X173900Y50100D02*
D03*
X75800Y18900D02*
D03*
X80900D02*
D03*
X192168Y45900D02*
D03*
X192300Y52900D02*
D03*
X65700Y15300D02*
D03*
X52573Y15110D02*
D03*
X58200Y15200D02*
D03*
X90800Y71700D02*
D03*
X167700Y57300D02*
D03*
X79297Y49900D02*
D03*
X162500Y57500D02*
D03*
X158000Y58000D02*
D03*
X77000Y88000D02*
D03*
X96500D02*
D03*
X198000Y61400D02*
D03*
X193500Y63500D02*
D03*
X194500Y42500D02*
D03*
X202500Y59500D02*
D03*
X189079Y65800D02*
D03*
X226200Y69500D02*
D03*
X216190Y72341D02*
D03*
X222900Y72500D02*
D03*
X219400Y69500D02*
D03*
X239500D02*
D03*
X246100D02*
D03*
X232900Y69600D02*
D03*
X236100Y72300D02*
D03*
X229500Y72500D02*
D03*
X243000D02*
D03*
X180786Y70500D02*
D03*
X184400Y67400D02*
D03*
X167700Y76700D02*
D03*
X189000Y42500D02*
D03*
X185000Y38000D02*
D03*
X199000Y39500D02*
D03*
X193800Y32200D02*
D03*
X198500Y29921D02*
D03*
X216103Y30496D02*
D03*
X254500Y88500D02*
D03*
X249500D02*
D03*
Y30300D02*
D03*
X246000Y27300D02*
D03*
X242900Y30300D02*
D03*
X239400Y27300D02*
D03*
X236200Y30300D02*
D03*
X232700Y27300D02*
D03*
X229500Y30500D02*
D03*
X226000Y27500D02*
D03*
X222800Y30500D02*
D03*
X219300Y27500D02*
D03*
M02*
