M48
;Layer_Color=9474304
;FILE_FORMAT=2:5
INCH,LZ
;TYPE=PLATED
T01F00S00C0.01200
T03F00S00C0.02800
T04F00S00C0.04000
%
T01
X00296Y00097
X0037Y00153
X00461Y00147
X00464Y00187
Y00223
X00461Y00269
X00509Y00292
X0055
X00598Y00293
X00582Y00152
X0052573Y001511
X00657Y00153
X00758Y00189
X00809
X0079297Y00499
X00791Y00564
Y00624
X00732Y00747
X00688
X0069Y00791
X00732Y00792
X00707Y00884
X0077Y0088
X00835Y0086
X00908Y00717
X0064Y00695
X00664Y00539
X0062Y005
X00475Y00596
X005Y00648
X00449Y00706
X00468Y00747
Y00783
X0047Y00861
X00361Y00779
X00313Y0077865
X00372Y00729
X00278Y00601
X0029Y00556
X00318Y0042
X00289Y00388
X00376Y00262
X00476Y00332
X00971Y00343
X01011Y00342
X01055Y00341
X011
X01146Y00343
X01147Y00396
X01102
X01057
X01012Y00395
X00972Y00396
Y0046
X01012Y00459
X01057Y0046
X01102
X01147
X01245Y00396
X01476Y00356
X01609Y00506
X01625Y00575
X0158Y0058
X0161Y00615
X01677Y00573
X01739Y00501
X0173868Y00431
X0189Y00425
X01945
X0192168Y00459
X01923Y00529
X01935Y00635
X0198Y00614
X02025Y00595
X020175Y007425
X021619Y0072341
X02194Y00695
X02229Y00725
X02262Y00695
X02295Y00725
X02329Y00696
X02361Y00723
X02395Y00695
X0243Y00725
X02461Y00695
X02495Y0072
Y00885
X02459Y00889
X0239613Y0061866
X02427Y00531
Y00467
X02363Y00469
X02361Y00532
X0227956Y00565
X0227834Y0050013
X0227634Y0043613
X02295Y00305
X02327Y00273
X02362Y00303
X02394Y00273
X02429Y00303
X0246Y00273
X02495Y00303
X0239387Y0038134
X0226Y00275
X02228Y00305
X02193Y00275
X0216103Y0030496
X02056Y00233
X01985Y0029921
X01938Y00322
X0199Y00395
X0185Y0038
X0184Y002
X0169
X0162Y0014
X01677Y00767
X0184Y00765
X0180786Y00705
X01844Y00674
X0189079Y00658
X0149Y0085
X0123228Y0076376
X00975Y0077
X00965Y0088
X00942Y00614
X00943Y00564
X0251366Y0055887
Y0049887
Y0043387
X0263Y00435
Y00465
Y005
Y00535
Y00565
Y006
Y00635
Y00665
Y007
Y00735
X0259574Y0073624
X02586Y00819
X02545Y00885
X0263Y004
Y00365
Y00335
Y003
Y00265
X0256039Y00273
X0252693
X02655Y00195
T03
X00375Y0045
Y005
Y0055
X01376Y00516
X01426
T04
X00345Y00055
X00445
X00545
X00645
X00745
X00845
X00945
X01045
X01145
X01245
X01345
X01445
X01545
X01645
X01745
X01845
X01945
X02045
X02145
X02245
X02345
X02445
X02545
X02645
Y00945
X02545
X02445
X02345
X02245
X02145
X02045
X01945
X01845
X01745
X01645
X01545
X01445
X01345
X01245
X01145
X01045
X00945
X00845
X00745
X00645
X00545
X00445
X00345
M30
